<svg width="96" height="89" viewBox="0 0 96 89" fill="none" xmlns="http://www.w3.org/2000/svg">
<path d="M48 89C35.2696 89 23.0606 84.3116 14.0589 75.9662C5.05713 67.6209 -3.54136e-07 56.3021 0 44.5C3.54136e-07 32.6979 5.05713 21.3791 14.0589 13.0337C23.0606 4.68838 35.2696 -1.40739e-07 48 0V44.5L48 89Z" fill="url(#paint0_linear_743_574)"/>
<path d="M48 89C60.7304 89 72.9394 84.3116 81.9411 75.9662C90.9429 67.6209 96 56.3021 96 44.5C96 32.6979 90.9429 21.3791 81.9411 13.0337C72.9394 4.68838 60.7304 -1.40739e-07 48 0V44.5L48 89Z" fill="url(#paint1_linear_743_574)"/>
<defs>
<linearGradient id="paint0_linear_743_574" x1="1.89813e-07" y1="18.3681" x2="148.165" y2="-0.0691503" gradientUnits="userSpaceOnUse">
<stop stop-color="#41479E"/>
<stop offset="1" stop-color="#D9D9D9" stop-opacity="0"/>
</linearGradient>
<linearGradient id="paint1_linear_743_574" x1="96" y1="18.3681" x2="-52.1653" y2="-0.0691503" gradientUnits="userSpaceOnUse">
<stop stop-color="#41479E"/>
<stop offset="1" stop-color="#D9D9D9" stop-opacity="0"/>
</linearGradient>
</defs>
</svg>
