<svg width="310" height="310" viewBox="0 0 310 310" fill="none" xmlns="http://www.w3.org/2000/svg">
<path d="M273.502 124.509C268.937 119.738 264.214 114.821 262.434 110.498C260.788 106.538 260.691 99.975 260.594 93.6176C260.412 81.7988 260.218 68.4059 250.906 59.0938C241.594 49.7816 228.201 49.5879 216.382 49.4062C210.025 49.3094 203.462 49.2125 199.502 47.5656C195.179 45.7855 190.262 41.0629 185.491 36.4977C177.124 28.4691 167.642 19.375 155 19.375C142.358 19.375 132.876 28.4691 124.509 36.4977C119.738 41.0629 114.821 45.7855 110.498 47.5656C106.562 49.2125 99.975 49.3094 93.6176 49.4062C81.7988 49.5879 68.4059 49.7816 59.0938 59.0938C49.7816 68.4059 49.6484 81.7988 49.4062 93.6176C49.3094 99.975 49.2125 106.538 47.5656 110.498C45.7855 114.821 41.0629 119.738 36.4977 124.509C28.4691 132.864 19.375 142.358 19.375 155C19.375 167.642 28.4691 177.124 36.4977 185.491C41.0629 190.262 45.7855 195.179 47.5656 199.502C49.2125 203.462 49.3094 210.025 49.4062 216.382C49.5879 228.201 49.7816 241.594 59.0938 250.906C68.4059 260.218 81.7988 260.412 93.6176 260.594C99.975 260.691 106.538 260.788 110.498 262.434C114.809 264.214 119.738 268.937 124.509 273.502C132.876 281.531 142.358 290.625 155 290.625C167.642 290.625 177.124 281.531 185.491 273.502C190.262 268.937 195.179 264.214 199.502 262.434C203.462 260.788 210.025 260.691 216.382 260.594C228.201 260.412 241.594 260.218 250.906 250.906C260.218 241.594 260.412 228.201 260.594 216.382C260.691 210.025 260.788 203.462 262.434 199.502C264.214 195.191 268.937 190.262 273.502 185.491C281.531 177.136 290.625 167.642 290.625 155C290.625 142.358 281.531 132.876 273.502 124.509ZM259.516 172.086C253.716 178.141 247.709 184.402 244.525 192.091C241.473 199.478 241.34 207.918 241.219 216.092C241.098 224.568 240.964 233.445 237.198 237.198C233.432 240.952 224.617 241.098 216.092 241.219C207.918 241.34 199.478 241.473 192.091 244.525C184.402 247.709 178.141 253.716 172.086 259.516C166.032 265.316 159.844 271.25 155 271.25C150.156 271.25 143.932 265.292 137.914 259.516C131.895 253.74 125.598 247.709 117.909 244.525C110.522 241.473 102.082 241.34 93.9082 241.219C85.4316 241.098 76.5555 240.964 72.8016 237.198C69.0477 233.432 68.9023 224.617 68.7812 216.092C68.6602 207.918 68.527 199.478 65.4754 192.091C62.2906 184.402 56.2844 178.141 50.484 172.086C44.6836 166.032 38.75 159.844 38.75 155C38.75 150.156 44.7078 143.932 50.484 137.914C56.2602 131.895 62.2906 125.598 65.4754 117.909C68.527 110.522 68.6602 102.082 68.7812 93.9082C68.9023 85.4316 69.0355 76.5555 72.8016 72.8016C76.5676 69.0477 85.3832 68.9023 93.9082 68.7812C102.082 68.6602 110.522 68.527 117.909 65.4754C125.598 62.2906 131.859 56.2844 137.914 50.484C143.968 44.6836 150.156 38.75 155 38.75C159.844 38.75 166.068 44.7078 172.086 50.484C178.105 56.2602 184.402 62.2906 192.091 65.4754C199.478 68.527 207.918 68.6602 216.092 68.7812C224.568 68.9023 233.445 69.0355 237.198 72.8016C240.952 76.5676 241.098 85.3832 241.219 93.9082C241.34 102.082 241.473 110.522 244.525 117.909C247.709 125.598 253.716 131.859 259.516 137.914C265.316 143.968 271.25 150.156 271.25 155C271.25 159.844 265.292 166.068 259.516 172.086Z" fill="url(#paint0_angular_24_6635)"/>
<path fill-rule="evenodd" clip-rule="evenodd" d="M158.429 124.507C154.676 125.493 151.409 127.808 149.236 131.021C148.85 131.625 148.347 132.144 147.757 132.55C147.166 132.955 146.501 133.238 145.799 133.382C145.098 133.526 144.375 133.528 143.673 133.387C142.97 133.247 142.303 132.967 141.711 132.565C141.119 132.162 140.614 131.645 140.225 131.043C139.836 130.442 139.571 129.769 139.447 129.064C139.323 128.359 139.341 127.636 139.501 126.938C139.661 126.24 139.96 125.581 140.379 125C142.548 121.805 145.382 119.116 148.688 117.119C151.993 115.122 155.691 113.863 159.529 113.429C156.839 111.946 153.713 111.458 150.7 112.05C149.326 112.278 147.917 111.962 146.772 111.169C145.628 110.376 144.837 109.168 144.567 107.801C144.298 106.435 144.571 105.017 145.329 103.849C146.088 102.681 147.271 101.853 148.629 101.543C153.479 100.586 158.506 101.165 163.012 103.198C167.518 105.23 171.279 108.617 173.771 112.886C178.455 111.136 183.554 110.818 188.419 111.973C193.283 113.128 197.695 115.703 201.093 119.371C201.571 119.887 201.943 120.492 202.188 121.152C202.432 121.812 202.545 122.513 202.518 123.216C202.492 123.919 202.327 124.61 202.033 125.25C201.74 125.889 201.323 126.464 200.807 126.943C200.291 127.421 199.686 127.793 199.026 128.038C198.367 128.282 197.665 128.395 196.962 128.368C196.259 128.342 195.568 128.177 194.929 127.883C194.289 127.59 193.714 127.173 193.236 126.657C190.836 124.064 187.572 122.436 184.057 122.079H184.014C186.563 124.84 188.415 128.17 189.415 131.792C190.415 135.414 190.535 139.222 189.764 142.9C189.624 143.593 189.348 144.251 188.953 144.836C188.557 145.422 188.049 145.923 187.459 146.312C186.869 146.7 186.207 146.968 185.513 147.1C184.819 147.232 184.105 147.225 183.414 147.08C182.722 146.935 182.066 146.654 181.483 146.255C180.9 145.855 180.403 145.344 180.018 144.751C179.634 144.158 179.371 143.494 179.244 142.799C179.117 142.104 179.129 141.391 179.279 140.7C179.891 137.772 179.464 134.722 178.07 132.076C176.676 129.429 174.404 127.351 171.643 126.2C168.593 128.279 166.029 131.693 164.079 136.414C162.136 141.114 160.936 146.836 160.479 153.071C164.468 154.095 168.274 155.728 171.764 157.914C177.3 161.343 182.193 166.129 186.221 171.914C183.553 172.561 181.232 174.204 179.736 176.507C179.121 177.493 178.486 178.293 177.864 178.929C176.513 180.251 174.698 180.992 172.807 180.992C170.916 180.992 169.101 180.251 167.75 178.929C167.157 178.312 166.622 177.642 166.15 176.929C163.386 172.814 158.607 171.921 155.779 171.921C152.95 171.921 148.171 172.814 145.407 176.929C144.934 177.641 144.398 178.31 143.807 178.929C142.456 180.251 140.641 180.992 138.75 180.992C136.859 180.992 135.044 180.251 133.693 178.929C132.984 178.189 132.355 177.377 131.814 176.507C129.171 172.314 124.436 171.436 121.729 171.436C120.257 171.436 118.229 171.693 116.236 172.579C120.35 166.486 125.407 161.479 131.143 157.914C136.755 154.361 143.188 152.317 149.821 151.979C150.357 144.993 151.743 138.221 154.179 132.321C155.298 129.565 156.723 126.944 158.429 124.507ZM126.643 183.071C126.228 182.103 125.538 181.278 124.657 180.7C123.776 180.122 122.744 179.817 121.691 179.822C120.637 179.827 119.608 180.143 118.734 180.73C117.859 181.317 117.176 182.149 116.771 183.121C116.165 184.582 115.24 185.889 114.065 186.948C112.89 188.007 111.494 188.791 109.979 189.243C109.304 189.443 108.676 189.774 108.129 190.217C107.583 190.661 107.129 191.207 106.794 191.825C106.458 192.444 106.248 193.122 106.175 193.822C106.102 194.522 106.168 195.229 106.368 195.904C106.568 196.578 106.899 197.206 107.342 197.753C107.786 198.299 108.332 198.753 108.95 199.088C109.569 199.424 110.247 199.634 110.947 199.707C111.647 199.78 112.354 199.715 113.029 199.514C116.284 198.546 119.262 196.814 121.714 194.464C122.95 195.671 124.329 196.736 125.829 197.636C133.307 202.121 144.193 202.121 151.671 197.636C153.159 196.744 154.537 195.682 155.779 194.471C157.014 195.671 158.386 196.736 159.886 197.636C167.364 202.121 178.25 202.121 185.729 197.636C187.229 196.736 188.607 195.671 189.843 194.464L190.321 194.914C192.679 197.036 195.486 198.607 198.529 199.507C199.873 199.856 201.3 199.67 202.509 198.987C203.718 198.305 204.615 197.179 205.011 195.848C205.406 194.517 205.27 193.084 204.629 191.852C203.989 190.62 202.895 189.684 201.579 189.243C200.063 188.791 198.667 188.007 197.492 186.948C196.317 185.889 195.392 184.582 194.786 183.121C194.381 182.149 193.699 181.317 192.824 180.73C191.949 180.143 190.92 179.827 189.867 179.822C188.813 179.817 187.781 180.122 186.9 180.7C186.02 181.278 185.329 182.103 184.914 183.071C183.952 185.314 182.307 187.196 180.214 188.45C176.129 190.9 169.479 190.9 165.4 188.45C163.307 187.196 161.662 185.314 160.7 183.071C160.286 182.109 159.6 181.29 158.725 180.714C157.85 180.138 156.826 179.831 155.779 179.831C154.731 179.831 153.707 180.138 152.832 180.714C151.958 181.29 151.271 182.109 150.857 183.071C149.895 185.314 148.251 187.196 146.157 188.45C142.071 190.9 135.421 190.9 131.336 188.45C129.245 187.195 127.603 185.313 126.643 183.071Z" fill="white"/>
<defs>
<radialGradient id="paint0_angular_24_6635" cx="0" cy="0" r="1" gradientUnits="userSpaceOnUse" gradientTransform="translate(155 155) rotate(90) scale(135.625)">
<stop stop-color="white"/>
<stop offset="0.245" stop-color="#365486"/>
<stop offset="0.5" stop-color="white"/>
<stop offset="0.75" stop-color="#365486"/>
<stop offset="1" stop-color="white"/>
</radialGradient>
</defs>
</svg>
